<?xml version="1.0" standalone="no"?>
<!DOCTYPE svg PUBLIC "-//W3C//DTD SVG 20010904//EN"
 "http://www.w3.org/TR/2001/REC-SVG-20010904/DTD/svg10.dtd">
<svg version="1.0" xmlns="http://www.w3.org/2000/svg"
 width="171.000000pt" height="171.000000pt" viewBox="0 0 171.000000 171.000000"
 preserveAspectRatio="xMidYMid meet">
<metadata>
Created by potrace 1.11, written by Peter Selinger 2001-2013
</metadata>
<g transform="translate(0.000000,171.000000) scale(0.100000,-0.100000)"
fill="#000000" stroke="none">
<path d="M115 1691 c-49 -22 -79 -54 -100 -104 -13 -32 -15 -125 -15 -738 1
-665 1 -703 19 -737 24 -47 56 -77 103 -97 33 -13 128 -15 735 -15 657 0 700
2 738 19 48 22 79 54 100 103 13 33 15 128 15 733 0 605 -2 700 -15 733 -20
47 -50 79 -97 103 -34 18 -71 18 -740 19 -663 0 -705 -1 -743 -19z"/>
</g>
</svg>
