<?xml version="1.0" encoding="iso-8859-1"?>
<!-- Generator: Adobe Illustrator 16.0.0, SVG Export Plug-In . SVG Version: 6.00 Build 0)  -->
<!DOCTYPE svg PUBLIC "-//W3C//DTD SVG 1.1//EN" "http://www.w3.org/Graphics/SVG/1.1/DTD/svg11.dtd">
<svg version="1.1" id="Capa_1" xmlns="http://www.w3.org/2000/svg" xmlns:xlink="http://www.w3.org/1999/xlink" x="0px" y="0px"
	 width="482.115px" height="482.115px" viewBox="0 0 482.115 482.115" style="enable-background:new 0 0 482.115 482.115;"
	 xml:space="preserve">
<g>
	<g>
		<path d="M371.571,11.744C356.067,1.827,308.094,0,274.836,0c-19.396,0-33.779,0.621-33.779,0.621S226.675,0,207.275,0
			c-33.254,0-81.232,1.827-96.731,11.744c0,0-7.638,96.168-95.569,108.924c0,0-4.522,257.751,226.083,361.448
			C471.661,378.427,467.14,120.667,467.14,120.667C379.206,107.912,371.571,11.744,371.571,11.744z M71.834,253.956
			c-1.545-4.248-2.91-8.428-4.278-12.587h157.8v197.698C153.511,398.805,101.923,336.678,71.834,253.956z M410.279,253.956
			c-30.092,82.722-81.679,144.849-153.521,185.111V241.369h157.797C413.188,245.528,411.826,249.708,410.279,253.956z
			 M423.547,209.967H58.567c-6.476-26.377-9.562-49.27-10.975-65.157c56.03-20.121,81.95-71.214,90.827-109.247
			c11.07-1.956,31.772-4.164,68.848-4.164c18.412,0,32.292,0.591,32.434,0.591l1.356,0.054l1.343-0.054
			c0.141-0.008,14.022-0.591,32.428-0.591c37.073,0,57.779,2.208,68.844,4.164c8.885,38.024,34.805,89.125,90.833,109.247
			C433.11,160.706,430.011,183.598,423.547,209.967z"/>
	</g>
</g>
<g>
</g>
<g>
</g>
<g>
</g>
<g>
</g>
<g>
</g>
<g>
</g>
<g>
</g>
<g>
</g>
<g>
</g>
<g>
</g>
<g>
</g>
<g>
</g>
<g>
</g>
<g>
</g>
<g>
</g>
</svg>
